<?xml version="1.0" encoding="utf-8"?>
<!-- Generator: Adobe Illustrator 23.1.1, SVG Export Plug-In . SVG Version: 6.00 Build 0)  -->
<svg version="1.1" id="Camada_1" xmlns="http://www.w3.org/2000/svg" xmlns:xlink="http://www.w3.org/1999/xlink" x="0px" y="0px"
	 viewBox="0 0 209.4 51.3" style="enable-background:new 0 0 209.4 51.3;" xml:space="preserve">
<style type="text/css">
	.st0{fill:#FCFDF9;}
</style>
<g>
	<g>
		<path class="st0" d="M7.7,45.1l1.7-4.7c0.7,0.5,1.6,0.8,2.7,0.8c1.6,0,2.6-1,2.6-3.2V15.8h6.4v22.1c0,5.1-3,8.4-8.4,8.4
			C10.9,46.3,9,45.9,7.7,45.1z M14,9.2c0-2,1.6-3.6,4-3.6s4,1.5,4,3.5c0,2.1-1.6,3.7-4,3.7S14,11.2,14,9.2z"/>
		<path class="st0" d="M48,28.7H31.3c0.6,2.8,3,4.4,6.3,4.4c2.3,0,4-0.7,5.6-2.1l3.4,3.7c-2.1,2.3-5.1,3.6-9.1,3.6
			c-7.7,0-12.6-4.8-12.6-11.4c0-6.6,5.1-11.4,11.8-11.4c6.5,0,11.5,4.4,11.5,11.5C48.1,27.5,48.1,28.2,48,28.7z M31.2,25h10.9
			c-0.5-2.8-2.6-4.6-5.4-4.6C33.7,20.4,31.6,22.1,31.2,25z"/>
		<path class="st0" d="M66,36.9c-1.3,0.9-3.3,1.4-5.2,1.4c-5.2,0-8.3-2.7-8.3-7.9v-9.1h-3.4v-4.9h3.4v-5.4h6.4v5.4h5.5v4.9h-5.5v9
			c0,1.9,1,2.9,2.8,2.9c0.9,0,1.9-0.3,2.6-0.8L66,36.9z"/>
		<path class="st0" d="M67.3,26.9c0-6.7,5.1-11.4,12.2-11.4s12.1,4.7,12.1,11.4c0,6.7-5.1,11.4-12.1,11.4S67.3,33.6,67.3,26.9z
			 M85.1,26.9c0-3.8-2.4-6.1-5.6-6.1s-5.7,2.3-5.7,6.1c0,3.8,2.5,6.1,5.7,6.1S85.1,30.7,85.1,26.9z"/>
	</g>
</g>
<g>
	<g>
		<path class="st0" d="M122.7,29.6c0,5-4,7.9-11.5,7.9H96.3V8.6h14.1c7.2,0,10.9,3,10.9,7.5c0,2.9-1.5,5.1-3.8,6.3
			C120.6,23.5,122.7,26,122.7,29.6z M102.9,13.6v6.8h6.6c3.3,0,5-1.2,5-3.4s-1.8-3.4-5-3.4H102.9z M116,28.9c0-2.4-1.9-3.6-5.3-3.6
			h-7.8v7.1h7.8C114.1,32.4,116,31.3,116,28.9z"/>
		<path class="st0" d="M145.7,24.8v12.6h-6v-2.8c-1.2,2-3.5,3.1-6.8,3.1c-5.2,0-8.3-2.9-8.3-6.7c0-3.9,2.8-6.6,9.5-6.6h5.1
			c0-2.8-1.6-4.4-5.1-4.4c-2.3,0-4.8,0.8-6.4,2.1l-2.3-4.5c2.4-1.7,6-2.7,9.6-2.7C141.8,15,145.7,18.1,145.7,24.8z M139.3,30.4v-2.3
			h-4.4c-3,0-4,1.1-4,2.6c0,1.6,1.4,2.7,3.6,2.7C136.7,33.4,138.5,32.5,139.3,30.4z"/>
		<path class="st0" d="M173,24.8v12.7h-6.4V25.7c0-3.6-1.6-5.2-4.5-5.2c-3.1,0-5.3,1.9-5.3,6v11h-6.4V15.3h6.1v2.6
			c1.7-1.9,4.3-2.9,7.3-2.9C169,15,173,18,173,24.8z"/>
	</g>
</g>
<g>
	<path class="st0" d="M200.3,12.2l-9,11.5l-0.5,0.6l0.5,0.6l9,11.5h-5.5l-9.5-12.1l9.5-12.1H200.3 M202.4,11.2h-8l-10.3,13.1l0,0h0
		l10.3,13.1h8l-10.3-13.1h0l0,0L202.4,11.2L202.4,11.2z"/>
</g>
<rect x="177.4" y="6.7" class="st0" width="6.6" height="30.7"/>
</svg>
